<?xml version="1.0" encoding="utf-8"?>
<!DOCTYPE svg PUBLIC "-//W3C//DTD SVG 1.0//EN" "http://www.w3.org/TR/2001/REC-SVG-20010904/DTD/svg10.dtd">
<svg version="1.0" xmlns="http://www.w3.org/2000/svg" width="1024px" height="1024px" viewBox="0 0 1024 1024" preserveAspectRatio="xMidYMid meet">
 <g fill="#fbfbfa">
  
  <path d="M161 533.1 c0 -0.5 -1.8 -1.2 -4 -1.6 -4 -0.7 -4 -0.7 -4 -5.1 l0 -4.4 7.5 0 c5.7 0 7.5 0.3 7.5 1.4 0 0.7 0.9 1.6 2.1 1.9 1.7 0.5 2 1.2 1.7 4.4 l-0.3 3.8 -5.2 0.3 c-3 0.2 -5.3 -0.1 -5.3 -0.7z"/>
 </g>
 <g fill="#f0f0ed">
  <path d="M557.4 759.6 c-0.3 -0.7 -0.4 -3.3 -0.2 -5.7 l0.3 -4.4 6.1 -0.3 c6.9 -0.3 7.4 0.2 7.4 8.1 l0 3.7 -6.5 0 c-4.7 0 -6.7 -0.4 -7.1 -1.4z"/>
  <path d="M513 721.5 l0 -4.5 5.5 0 c5.4 0 5.5 0 5.5 2.9 0 5.3 -0.8 6.1 -6.1 6.1 l-4.9 0 0 -4.5z"/>
  <path d="M345.3 610.3 c-2 -0.4 -2.3 -1.1 -2.3 -5.3 0 -5.9 0.3 -6 12.1 -6 l8.9 0 0 3.4 c0 3.3 -0.2 3.5 -4.4 4.1 -3.2 0.5 -4.6 1.2 -4.9 2.6 -0.5 1.9 -3.7 2.3 -9.4 1.2z"/>
  <path d="M668.9 608.3 c-0.5 -1.5 -0.9 -4.1 -0.7 -5.7 l0.3 -3.1 10.8 -0.3 10.7 -0.3 0 6.1 0 6 -10 0 c-10 0 -10.1 0 -11.1 -2.7z"/>
  <path d="M660.3 584 c-1.3 -2.1 -2.3 -5.5 -2.3 -7.4 l0 -3.6 5.5 0 5.5 0 0 7.5 0 7.5 -3.2 0 c-2.8 0 -3.7 -0.6 -5.5 -4z"/>
  <path d="M644.4 550.8 c0.3 -2.9 0.6 -6.3 0.6 -7.6 0 -2.1 0.4 -2.3 4.8 -2 4.7 0.3 4.7 0.3 5 4.2 0.2 2.1 -0.1 4.3 -0.7 4.9 -0.6 0.6 -1.1 1.9 -1.1 2.8 0 2 -2 2.9 -6.2 2.9 l-3.1 0 0.7 -5.2z"/>
  <path d="M102.3 548.5 c-0.1 -4.7 0.2 -6.3 1 -5.8 0.9 0.5 0.9 0.3 0 -0.8 -0.9 -1.1 -0.9 -5.9 0.1 -5.9 0 0 7.9 -2.7 17.5 -6 9.6 -3.3 18.3 -6 19.3 -6 1 0 2.6 -0.4 3.6 -0.9 4.1 -2.1 9.2 -3.9 54.7 -19 26.4 -8.8 60 -20.1 74.7 -25.1 14.7 -4.9 27.7 -9 28.8 -9 1.1 0 2.8 -0.5 3.8 -1 2.3 -1.4 14.7 -5.9 30.7 -11.1 7.2 -2.3 14.4 -4.8 16 -5.5 1.7 -0.6 7.1 -2.4 12 -3.8 5 -1.5 9.7 -3 10.5 -3.4 0.8 -0.5 8.9 -3.2 18 -6.1 9.1 -3 17.4 -5.8 18.5 -6.2 8.5 -3.5 23.5 -7.9 26 -7.7 2.6 0.3 3 0.8 3.3 3.5 0.2 2.3 -0.3 4 -1.8 5.5 -2.4 2.6 -5 8.2 -5 10.9 0 0.9 -0.7 2.4 -1.5 3.3 -0.8 0.8 -1.5 2.1 -1.5 2.8 0 2.4 -2.3 3.8 -6.2 3.8 -3.4 0 -3.8 -0.3 -3.8 -2.6 0 -2.1 -0.4 -2.5 -1.7 -1.9 -1 0.3 -6.5 2.2 -12.3 4.1 -10.2 3.4 -13.6 4.6 -17.2 6.5 -1 0.5 -2.8 0.9 -4.1 0.9 -1.3 0 -2.7 0.3 -3.1 0.7 -1.1 1.1 -9.7 3.2 -13.2 3.3 -1.8 0 -3.4 0.6 -3.7 1.3 -0.2 0.7 -3.8 2.3 -7.8 3.6 -4.1 1.3 -8.7 2.9 -10.4 3.6 -1.6 0.7 -14.5 4.9 -28.5 9.5 -14 4.5 -26.8 8.8 -28.5 9.5 -1.6 0.7 -8.8 3.2 -16 5.5 -7.1 2.3 -13.4 4.6 -14 5 -0.5 0.4 -2.6 1.1 -4.5 1.4 -1.9 0.4 -5.1 1.3 -7 2 -1.9 0.8 -7.7 2.6 -12.8 4.2 -5.1 1.5 -9.8 3.4 -10.4 4.1 -0.6 0.7 -2.1 1.3 -3.3 1.3 -1.3 0 -3.6 0.7 -5.1 1.5 -1.6 0.8 -3.6 1.5 -4.4 1.5 -1.5 0 -14.5 4 -19 5.8 -1.4 0.6 -5 1.8 -8 2.7 -3 0.9 -6.2 2.3 -7 3 -0.8 0.7 -3.3 1.5 -5.6 1.9 -2.2 0.3 -6.3 1.4 -9 2.5 -9.4 3.6 -57.9 19.1 -60 19.1 -1.8 0 -2 -0.6 -2.1 -6.5z m66.2 -18.4 c1 -1.7 -1.1 -2.1 -3.1 -0.6 -1.8 1.4 -1.8 1.4 0.3 1.5 1.2 0 2.4 -0.4 2.8 -0.9z m-8.4 -2.5 c-1 -1.2 -0.7 -1.5 2.1 -1.9 2.6 -0.3 2.3 -0.4 -1.4 -0.5 -3.6 -0.2 -4.8 0.2 -4.8 1.2 0 0.8 1 1.7 2.3 1.9 1.2 0.2 2.4 0.5 2.6 0.6 0.2 0 -0.2 -0.5 -0.8 -1.3z"/>
  <path d="M627.7 511 c-0.4 -1.5 -1.4 -2 -4.1 -2 -3.4 0 -3.6 -0.2 -3.6 -3.3 0 -4.7 3.4 -7.7 8.7 -7.7 3.8 0 4.3 0.3 6.7 4.4 1.4 2.5 2.6 5.8 2.6 7.5 0 3 -0.1 3.1 -4.9 3.1 -4 0 -5 -0.3 -5.4 -2z"/>
  <path d="M610.3 498.8 c-2.1 -2.6 -13.6 -22.3 -14.9 -25.4 -0.8 -1.8 -1.4 -4.7 -1.4 -6.4 0 -2.9 0.1 -3 5 -3 3.9 0 5.3 0.4 6.2 2 1 1.5 2.4 2 5.5 2 4.9 0 6.3 1.7 6.3 7.4 0 3.2 -0.3 3.6 -2.5 3.6 -1.4 0 -2.5 0.3 -2.5 0.7 0 0.3 1.4 3.5 3 7 1.7 3.4 3 7.9 3 9.8 0 3.3 -0.2 3.5 -3.4 3.5 -1.8 0 -3.8 -0.6 -4.3 -1.2z"/>
  <path d="M582.4 451.2 c-2.8 -2 -5.6 -8.4 -5.2 -12.2 0.3 -3.7 0.2 -4 -2.3 -4 -2.2 0 -3.3 -1.2 -7.2 -7.7 -3.8 -6.6 -4.6 -8.9 -5.1 -14.8 -0.4 -3.8 -0.3 -7.6 0.2 -8.3 0.6 -0.9 2.5 -1.2 5.3 -1 4.2 0.3 4.4 0.5 4.7 3.6 0.2 1.7 0.7 3.2 1.3 3.2 0.5 0 0.9 1.3 0.9 2.9 0 1.9 0.8 3.5 2.1 4.5 1.7 1.1 2 2.3 1.9 5.8 -0.5 8.5 -0.1 11.8 1.5 11.8 0.8 0 1.5 -0.7 1.5 -1.6 0 -1.4 0.8 -1.6 4.6 -1.1 2.6 0.2 5 1.1 5.5 1.8 1.5 2.4 1.1 9.6 -0.6 10.3 -0.9 0.3 -1.5 1.9 -1.5 4.1 0 3.3 -0.2 3.5 -3.2 3.5 -1.8 0 -3.8 -0.4 -4.4 -0.8z"/>
 </g>
 <g fill="#ebe8dd">
  <path d="M467 812.8 c0 -2.3 0.9 -4 3.5 -6.4 l3.5 -3.2 0 -36.7 c0 -21.4 -0.4 -37.4 -1 -38.4 -0.7 -1.5 -1.8 -1.7 -6 -1.3 l-5 0.5 0 -3.5 c0 -3.3 3.2 -7.8 5.5 -7.8 0.5 0 3.9 -1.6 7.6 -3.5 7.9 -4.1 12 -4.4 14.9 -1.3 1.1 1.2 2 2.5 2 2.9 0 0.4 2.1 -0.4 4.7 -1.8 5.5 -3.2 17.2 -4.2 25.1 -2.3 6.3 1.5 12.4 6.6 16 13.4 2.5 4.8 2.7 5.8 2.7 18.6 0 15.9 -1.3 19.7 -9.5 28.4 -6.8 7.2 -11.9 8.8 -26.9 8.4 l-11.1 -0.3 0 12 c0 14.6 0.6 15.9 8 16.9 l5 0.7 0 3.9 0 4 -19.5 0 -19.5 0 0 -3.2z m45.1 -45.5 c8.1 -4.8 11.1 -22.1 5.7 -33.5 -4.5 -9.8 -12.3 -12.4 -20.6 -7.1 l-4.2 2.7 0 15.2 c0 17 0.5 18.5 7.8 22.4 4.6 2.4 7.6 2.5 11.3 0.3z m7.4 -45.3 c-0.3 -0.4 0.1 -1.1 0.7 -1.3 0.7 -0.3 0.1 -0.5 -1.3 -0.4 -2.9 0.1 -3.5 2.2 -0.7 2.4 1 0.1 1.6 -0.2 1.3 -0.7z"/>
  <path d="M394.5 779 c-14.9 -2 -26.2 -8.8 -34 -20.5 -5.2 -7.9 -7.6 -15.5 -8.2 -26.6 -1 -17.5 3 -30.7 12.5 -40.6 6.2 -6.4 11 -9.6 19.7 -12.9 6 -2.3 9 -2.7 21.1 -3.1 11.4 -0.4 15.3 -0.2 20 1.2 9 2.6 14.9 6 20.9 12.1 9.3 9.5 13.5 21.1 13.5 37.4 0 17.7 -4.7 28.9 -16.9 40.1 -4.1 3.8 -7.9 6.9 -8.3 6.9 -0.5 0 -3.3 1.1 -6.1 2.4 -8.8 4 -21 5.3 -34.2 3.6z m20.9 -11.2 c2.7 -0.8 6.1 -3.2 10.2 -7.3 5.5 -5.4 6.5 -7 8.8 -14.4 7.6 -23.9 -2.7 -51.8 -21.7 -58.9 -6.9 -2.6 -9.2 -2.7 -16.2 -0.7 -12.9 3.8 -21.5 18.1 -21.5 36 0 16.8 8.5 34.7 19.7 41.6 7.7 4.8 13.5 5.8 20.7 3.7z"/>
  <path d="M561.4 777.1 c-3.9 -1.8 -7.1 -5.2 -8.9 -9.6 -0.4 -1.1 -1.1 -10.5 -1.4 -21 l-0.6 -19 -4.5 -0.5 c-4.5 -0.5 -4.5 -0.5 -4.8 -4.6 -0.3 -3.9 -0.2 -4.1 4 -5.9 2.4 -1 6.7 -2.9 9.7 -4.2 3.7 -1.7 6.8 -2.3 10 -2.1 l4.6 0.3 0.5 22 c0.6 24.5 1.3 27.4 7.3 30 3.6 1.5 6.4 0.7 11.4 -3.1 l3.3 -2.5 0 -13.7 c0 -7.5 -0.4 -14.2 -0.8 -14.9 -0.4 -0.6 -2.5 -1.3 -4.7 -1.5 -3.9 -0.3 -4 -0.4 -4.3 -4.4 l-0.3 -4.1 9.6 -4.2 c7.7 -3.4 10.5 -4.1 14.3 -3.9 l4.7 0.3 0.5 25 c0.3 13.8 0.7 25.1 0.8 25.2 0.1 0.1 0.9 0.9 1.8 1.7 0.8 0.9 3.1 1.6 5 1.6 3.2 0 3.4 0.2 3.4 3.3 0 3.1 -0.4 3.5 -8.5 7.5 -10.8 5.3 -16.7 5.8 -19.2 1.3 l-1.7 -2.8 -5.4 2.8 c-4.7 2.5 -6.5 2.9 -13.6 2.9 -5.7 0 -9.3 -0.6 -12.2 -1.9z m6.6 -19.8 c-0.1 -3.6 -1.4 -5.3 -4.1 -5.3 -3.1 0 -4.5 1.9 -3.5 4.5 0.5 1.5 7.6 2.2 7.6 0.8z"/>
  <path d="M632.2 777.5 c-7.1 -2.2 -7.2 -2.4 -7.2 -15.1 l0 -11.4 3.8 0 c3.5 0 4 0.4 5.9 4.3 5.6 11.6 15.8 17.3 19.3 10.7 1.7 -3.1 -1.2 -7.4 -7.6 -11.2 -19.1 -11.3 -21.4 -14 -21.4 -24.6 0 -10.7 4.1 -16.6 13.8 -19.7 6 -2 21 -1.7 27 0.5 l3.3 1.2 -0.3 10.7 -0.3 10.6 -3.7 0.3 c-3.5 0.3 -3.8 0.1 -5.6 -4 -2.9 -6.6 -9.8 -11.8 -11.7 -8.8 -0.3 0.6 -1.5 1 -2.6 1 -1 0 -1.9 0.6 -1.9 1.4 0 2.7 4.4 6.4 13 11.1 14.2 7.7 16 10.3 16 22.8 0 7.4 -0.3 8.8 -2.7 12.5 -1.8 2.8 -4.5 5.1 -7.7 6.7 -4.4 2.2 -6.3 2.5 -15 2.4 -5.6 0 -12 -0.6 -14.4 -1.4z"/>
  <path d="M325 613.9 c0 -3.5 -1.7 -0.5 56.8 -99.9 21.5 -36.4 38.7 -64.6 39.6 -64.8 0.9 -0.2 1.6 -0.7 1.6 -1.2 0 -0.9 3.9 -2.3 5.8 -2.1 0.6 0.1 1.2 -0.2 1.3 -0.6 0.4 -4.7 3 -11.1 5.8 -13.9 2.4 -2.6 1.8 -3.6 -1.5 -2.4 l-2.4 1 1.9 -3.8 c1.5 -2.9 52.1 -89.2 71.6 -122 2.4 -4.1 2.7 -4.3 6.7 -4 l4.2 0.3 20.2 34.5 c11.2 19 26.1 44.3 33.1 56.3 19.5 33.2 17.9 31 24.6 32.7 5.5 1.4 5.7 1.5 5.7 4.7 0 2.9 -0.3 3.3 -2.5 3.3 -1.4 0 -2.5 0.5 -2.5 1.1 0 0.7 2.1 4.6 4.6 8.8 10.6 17.3 15.4 26.2 15.4 28.1 0 1.1 0.6 2 1.3 2 2.1 0 15.7 24 15.7 27.8 0 2 0.6 3.5 1.5 3.8 0.8 0.4 1.5 1.2 1.5 1.9 0 0.7 0.8 1.5 1.8 1.7 1 0.3 5.1 6.1 9.4 13.4 4.1 7.1 11.2 19.2 15.7 26.9 31.4 53.2 37.1 63.4 37.1 66.4 l0 3.1 -187 0 -187 0 0 -3.1z m27 -8.4 c0.5 -1.4 1.5 -2.3 2.2 -2 0.7 0.3 2.7 0.1 4.3 -0.4 2.5 -0.8 1.9 -0.9 -3.7 -1 -4.2 -0.1 -6.8 0.3 -6.8 1 0 0.5 -0.4 0.8 -0.8 0.5 -0.4 -0.2 -0.8 0.4 -0.8 1.5 0 1.2 0.5 1.8 1.3 1.5 0.7 -0.3 1.5 -0.1 1.8 0.4 0.9 1.5 1.5 1.2 2.5 -1.5z m335 -0.5 l0 -3 -7.4 0 c-4.1 0 -7.7 0.3 -7.9 0.8 -0.3 0.4 -0.1 1.7 0.4 3 0.8 2 1.5 2.2 7.9 2.2 l7 0 0 -3z m-54.3 -6.3 l36.2 -0.2 -2.9 -4.7 c-2.1 -3.4 -3 -6 -3 -9 0.1 -4.2 0.1 -4.3 1.5 -1.8 1.4 2.4 1.4 2.4 1.5 -2.2 0 -4.5 -0.2 -4.8 -2.6 -4.8 -2 0 -2.5 0.4 -2 1.6 0.4 1.2 0 1.5 -1.9 1.2 -2.1 -0.3 -6 -6.3 -26 -40.2 -12.9 -22 -23.5 -41 -23.5 -42.3 0 -1.2 -0.4 -2.3 -1 -2.3 -0.5 0 -1 -0.8 -1 -1.8 0 -2.2 -2.8 -8.1 -4.7 -10 -0.7 -0.7 -1.3 -2 -1.3 -2.8 0 -0.8 -0.7 -1.4 -1.5 -1.4 -0.9 0 -1.8 -1.2 -2.1 -3 -0.4 -2 -1.3 -3 -2.4 -3 -1.2 0 -3.8 -3.4 -7.9 -10.3 -4.7 -8 -6.1 -11.2 -6.1 -14.3 0.1 -3.9 0.1 -3.9 1.5 -1.4 0.8 1.4 1.5 2.1 1.5 1.5 0 -0.5 0.5 -0.3 1 0.5 0.7 1.1 0.8 0.6 0.4 -1.6 -0.5 -2.4 -0.1 -3.5 1.3 -4.5 2 -1.6 3.1 -4.5 1.2 -3.3 -0.9 0.5 -1 0.2 -0.6 -1 0.5 -1.3 0.3 -1.7 -0.7 -1.3 -0.8 0.3 -1.7 0.1 -2 -0.6 -0.2 -0.7 -0.5 -0.5 -0.5 0.5 -0.1 0.9 -1.1 1.8 -2.3 2 -1.5 0.2 -2.2 0.9 -2.2 2.1 0.1 1.2 -0.5 1.7 -2.1 1.7 -1.9 0 -3 -1.3 -5.5 -6.6 -1.7 -3.7 -3 -7.8 -2.8 -9.3 0.3 -2.5 0.4 -2.4 2.6 1.6 1.2 2.4 2.5 4.3 2.7 4.3 0.3 0 -0.2 -1.4 -1 -3.1 -1.5 -2.8 -1.5 -3.2 0 -4.9 1.6 -1.7 1.4 -2.1 -2.8 -6.3 -4.2 -4.1 -4.3 -4.4 -1.8 -4 1.5 0.3 2.1 0.1 1.4 -0.4 -0.6 -0.4 -1.3 -2.2 -1.5 -3.8 -0.3 -3.3 -3.2 -4.6 -4.2 -2 -0.3 0.9 -0.2 1.4 0.3 1.1 0.5 -0.3 0.8 1.7 0.7 4.4 -0.1 4.4 -0.4 5 -2.2 5 -2 0 -8.2 -10 -43.3 -70.2 -4.7 -8.1 -8.8 -14.8 -9.1 -14.7 -0.3 0 -5.7 8.9 -12 19.7 -6.3 10.8 -18.5 31.7 -27.1 46.3 -8.6 14.6 -16.6 28.3 -17.8 30.5 -1.2 2.1 -3.6 6.3 -5.4 9.2 -1.8 2.9 -8.6 14.4 -15.1 25.5 -6.6 11.1 -18.1 30.6 -25.6 43.2 -21.8 36.7 -54 91.4 -54 91.7 0 0.3 220.3 -0.1 277.7 -0.5z m17.3 -48.7 c0 -1.1 0.5 -2.2 1.1 -2.5 1.4 -0.9 0.6 -2.8 -1.3 -3.1 -1.2 -0.1 -1.7 0.8 -2 4.1 -0.2 3.1 0 4.1 1 3.8 0.6 -0.3 1.2 -1.3 1.2 -2.3z m-17.4 -44.2 c-3 -5.1 -4.5 -5.6 -7.4 -2.5 l-2.2 2.3 2.3 0.1 c4.7 0.4 6.9 1.4 6.3 2.8 -0.4 1 0.1 1.5 1.5 1.5 1.9 0 1.9 -0.1 -0.5 -4.2z m-18.7 -12.2 c-0.7 -1.4 -1.6 -2.6 -2.1 -2.6 -0.5 0 -0.8 -0.6 -0.6 -1.2 0.3 -1.7 -3.4 -9.8 -4.5 -9.8 -0.4 0 -0.5 -0.4 -0.2 -1 0.3 -0.5 0 -1 -0.7 -1 -0.9 0 -0.9 -0.3 0.2 -1 0.8 -0.5 3 -1 4.8 -1 3.5 0 3.7 -0.2 2.2 -3.1 -0.9 -1.6 -3.1 -2 -6 -0.9 -0.3 0.2 -0.9 0.2 -1.4 0.1 -0.4 -0.1 -1.5 0.6 -2.2 1.6 -1.3 1.7 -1.4 1.7 -0.7 -0.1 0.5 -1.5 0.3 -1.7 -0.8 -1.1 -1.2 0.8 -1.2 0.6 0 -0.8 1.7 -2.1 0 -4.6 -2.9 -4.4 -1.7 0.1 -1.7 0.4 -0.5 3.2 1.2 3.1 12.8 22.7 14.8 25.3 1.6 2 1.9 0.7 0.6 -2.2z m-186.9 -43.1 c0.6 -0.8 0.8 -2 0.4 -2.6 -0.5 -0.9 -1.1 -0.7 -2.1 0.6 -2.3 3.3 -0.9 5.1 1.7 2z"/>
  <path d="M360 467.1 c0 -0.5 0.7 -1.1 1.5 -1.5 0.8 -0.3 1.5 -1.2 1.5 -2.1 0 -1.6 2 -1.9 5.8 -0.9 2.5 0.7 3 3.9 0.6 4.8 -2.4 0.9 -9.4 0.7 -9.4 -0.3z"/>
 </g>
 <g fill="#2466e2">
  <path d="M917.8 624.1 c-0.1 -0.5 -4.1 -2.5 -8.8 -4.4 -10.4 -4.2 -50.5 -20.9 -58 -24.2 -3 -1.3 -20.1 -8.4 -38 -15.8 -17.9 -7.4 -50 -20.8 -71.5 -29.7 -21.4 -9 -50.2 -20.9 -63.8 -26.6 l-24.8 -10.3 -7.1 1.5 c-3.9 0.8 -7.2 1.3 -7.3 1.2 -2.6 -3.1 -18.5 -32 -18 -32.8 1.3 -2.1 8.3 -0.9 18 3.1 5.5 2.3 12.5 5.2 15.5 6.4 14.9 6.1 35.8 14.8 38.5 16 1.7 0.7 8 3.3 14 5.8 6.1 2.4 24.7 10.2 41.5 17.2 16.8 7 34.3 14.3 39 16.2 4.7 2 11 4.6 14 5.9 5.5 2.3 24.5 10.2 53 22 8.5 3.6 17.5 7.3 20 8.4 8.5 3.7 30.5 12.8 39 16.2 l8.5 3.4 0.3 10.7 c0.3 10.1 0.2 10.7 -1.7 10.7 -1 0 -2.1 -0.4 -2.3 -0.9z"/>
  <path d="M598 491.9 c-21.4 -6.6 -123.9 -37.3 -133.8 -40.1 -2.8 -0.8 -3.2 -1.3 -3.2 -4.2 0 -5.6 2.6 -7 11.7 -6.3 8.7 0.6 32.1 4 39.8 5.7 2.8 0.6 8.8 1.8 13.5 2.6 9.6 1.7 23 4.7 30.6 6.9 2.8 0.8 6 1.5 7.2 1.5 1.2 0 2.2 0.5 2.2 1 0 0.6 2.6 1 5.8 1 3.1 0 7.4 0.5 9.5 1.1 3.2 0.9 3.7 1.4 3.7 3.9 0 2.7 0.4 3 6.9 5 5.7 1.7 7.3 2.6 8.9 5.3 1 1.7 4 6.7 6.5 11 l4.7 7.7 -3.8 -0.1 c-2 0 -6.6 -0.9 -10.2 -2z"/>
 </g>
 <g fill="#d27b0b">
  <path d="M882 520.7 c-4.3 -1.3 -5 -2.2 -5 -6.9 0 -3.6 0.1 -3.7 4.4 -4.3 4.6 -0.7 6.9 -0.3 12.4 2.1 2.6 1.2 3.2 2 3.2 4.7 0 2.5 -0.6 3.5 -2.7 4.5 -3.2 1.4 -7.5 1.4 -12.3 -0.1z"/>
  <path d="M828.2 506.2 l-6.3 -1.5 0.3 -4.1 c0.3 -4 0.4 -4.1 4.9 -5 5.3 -1 9.9 -0.2 9.9 1.8 0 0.8 0.9 1.6 2 1.9 1.6 0.4 2 1.4 2 4.6 0 4 -0.1 4.1 -3.2 4 -1.8 0 -6.1 -0.8 -9.6 -1.7z"/>
  <path d="M787.3 495.3 c-1.9 -0.4 -2.3 -1.1 -2.3 -4.3 0 -2.1 0.5 -4.2 1.1 -4.6 0.8 -0.5 0.6 -1 -0.5 -1.6 -1 -0.6 -1.6 -2.2 -1.6 -4.3 0 -3.5 0 -3.5 4.6 -3.5 4.9 0 12 1.7 14.2 3.3 0.6 0.5 1.2 2.5 1.2 4.3 0 3.1 -0.3 3.4 -3 3.4 -2.4 0 -3 0.4 -3 2.1 0 5.3 -2.9 6.7 -10.7 5.2z"/>
  <path d="M701.6 461.5 c-6.4 -1.7 -9.6 -2.1 -11.3 -1.4 -3.8 1.4 -6.3 1.1 -13 -1.7 -5.9 -2.5 -6.3 -2.9 -6.3 -5.9 0 -2.1 0.6 -3.5 1.6 -3.9 4 -1.5 13.4 -0.4 27.1 3.4 8.1 2.2 15.2 4 16 4 0.9 0 1.3 1.3 1.3 4 0 3.9 -0.1 4 -3.2 3.9 -1.8 0 -7.3 -1.1 -12.2 -2.4z"/>
  <path d="M594.3 441.1 c-4.8 -8.4 -5 -9.1 -3.4 -10.5 1 -0.9 2.8 -1.6 4.2 -1.7 1.6 -0.1 1 -0.5 -2.1 -1.4 l-4.5 -1.3 7.3 -0.1 c5.7 -0.1 10.7 0.8 21.9 3.9 8.1 2.2 15.2 4 16 4 0.9 0 1.3 1.3 1.3 4 0 3.7 -0.2 4 -2.7 4 -1.6 0 -6.1 -0.9 -10 -1.9 -7.2 -1.9 -7.3 -1.9 -7.3 0 0 1.2 -0.7 1.9 -2 1.9 -1.1 0 -3 1.2 -4.3 2.6 -2.1 2.5 -6.7 5.4 -8.4 5.4 -0.5 0 -3.2 -4 -6 -8.9z"/>
  <path d="M522.8 437.8 c-2.3 -0.8 -2.8 -1.6 -2.8 -4.4 0 -2.7 0.4 -3.4 2 -3.4 1 0 2.3 -0.6 2.7 -1.3 1.8 -3 14.2 -5.1 14.4 -2.4 0 0.6 0.5 0.2 1.1 -1 0.9 -1.8 2 -2.3 4.8 -2.3 2 0 8.4 -0.3 14.1 -0.6 l10.4 -0.6 3.2 5.6 c2.9 5.1 3 5.6 1.2 5.6 -1.1 0 -1.9 0.7 -1.9 1.6 0 3.9 -2.7 4.3 -25 4.3 -11.8 0 -22.7 -0.5 -24.2 -1.1z"/>
 </g>
 <g fill="#c77208">
  <path d="M901.5 525.9 c-7.7 -2.2 -14.1 -4.3 -14.3 -4.9 -0.2 -0.5 -1.9 -1 -3.7 -1 -1.8 0 -7.5 -1.1 -12.6 -2.5 -30.6 -8.1 -35.4 -9.6 -36.1 -10.9 -1 -1.8 -5.3 -2.9 -10.3 -2.7 -2.2 0.1 -10.7 -1.7 -19 -4 -8.2 -2.2 -18.1 -4.9 -22 -5.9 -3.8 -1 -19.8 -5.3 -35.5 -9.5 -15.7 -4.2 -40.9 -10.9 -56 -15 -38.1 -10.2 -45.2 -12.1 -63.6 -17.1 -10.9 -3 -18.1 -4.4 -22.3 -4.4 -3.3 0 -6.1 -0.4 -6.1 -0.8 0 -0.5 1.4 -1.8 3 -3.1 1.7 -1.2 2.8 -2.6 2.5 -3.1 -0.3 -0.5 1.1 -1.2 3.2 -1.6 2.1 -0.4 3.2 -0.9 2.5 -1.1 -0.6 -0.3 -0.9 -0.9 -0.6 -1.5 0.4 -0.6 -0.4 -2 -1.7 -3 -2 -1.7 -2.1 -1.9 -0.4 -1.3 6.1 2 23.5 6.2 23.5 5.6 0 -0.3 -5.1 -1.9 -11.3 -3.5 -6.2 -1.5 -12.6 -3.4 -14.2 -4.1 l-3 -1.3 3.2 -0.1 c1.8 -0.1 7.2 1 12 2.4 4.8 1.4 11.7 3 15.2 3.5 3.5 0.5 16 3.5 27.7 6.7 17.5 4.7 21.4 6.1 21.4 7.6 0 1.3 -0.8 1.7 -3.2 1.7 -6.2 0 -6.2 1.5 0.1 4.2 5.4 2.3 6.1 2.4 8.8 1.2 2.6 -1.3 4 -1.2 14.1 1.5 6.2 1.6 11.2 2.6 11.2 2.2 0 -0.4 -3.3 -1.5 -7.2 -2.4 -4 -1 -10 -2.6 -13.3 -3.6 -5.7 -1.8 -5.8 -1.9 -2.3 -2 2 -0.1 7.9 1 13 2.4 5.1 1.4 10.5 2.5 11.9 2.5 1.5 0 8.3 1.5 15 3.4 6.8 1.8 23.1 6.2 36.2 9.7 13.9 3.8 23.7 6.9 23.7 7.6 0 0.7 2.6 1.4 6.8 1.8 3.7 0.4 19.3 4.1 34.7 8.2 15.4 4.1 38.8 10.3 52 13.8 13.2 3.6 26.9 7.3 30.5 8.3 l6.5 1.9 0.1 9.1 0 9.2 -3 -0.1 c-1.7 -0.1 -9.4 -1.9 -17.1 -4z m-11.3 -8.9 c-0.2 -0.8 0.4 -1.1 1.8 -0.7 3 0.8 2.4 0 -1.2 -1.6 -5.4 -2.4 -7 -2.8 -6.2 -1.5 0.5 0.7 -0.1 0.9 -2 0.6 -1.4 -0.3 -2.6 -0.1 -2.6 0.3 0 0.5 0.5 0.9 1.1 0.9 0.5 0 0.7 0.5 0.3 1.2 -0.4 0.6 -0.3 0.8 0.3 0.5 0.6 -0.4 2.4 0 3.9 0.8 3.2 1.6 5.1 1.4 4.6 -0.5z m-52.2 -13.1 c0 -0.5 -1.4 -1.5 -3.1 -2.1 -1.9 -0.7 -2.7 -1.3 -1.9 -1.8 1.9 -1.2 -1.4 -2 -4.6 -1.1 -4.7 1.2 -3.7 2.7 2.8 4.4 3.5 0.8 6.4 1.6 6.6 1.6 0.1 0.1 0.2 -0.4 0.2 -1z m-45 -12.9 c-0.9 -0.6 -0.8 -0.9 0.6 -1.3 1 -0.3 0.4 -0.5 -1.5 -0.4 -2.1 0.1 -3.6 0.8 -3.8 1.7 -0.4 1.2 -0.2 1.2 0.5 0.2 0.7 -1 1.1 -1 2.2 0.2 0.7 0.9 1.7 1.3 2.2 1 0.6 -0.4 0.5 -0.9 -0.2 -1.4z m7.1 -7.3 c-1.2 -1.5 -11.8 -4.4 -12.7 -3.4 -0.3 0.3 0.8 1.3 2.5 2.2 1.7 0.8 3.1 1.1 3.1 0.6 0 -0.6 1.6 -0.4 3.8 0.4 4.7 1.7 4.6 1.7 3.3 0.2z"/>
  <path d="M468 439.7 c0 -2.6 0.9 -4.2 4.3 -7.4 3.7 -3.5 5.5 -4.3 14.7 -6.7 10 -2.5 11.9 -2.6 35.3 -2.6 21.3 0 24.7 0.2 24.7 1.5 0 0.8 -0.6 1.5 -1.4 1.5 -1.7 0 -2.9 2.7 -1.4 3.2 1.9 0.7 0 3.8 -2.2 3.8 -1.2 0 -3.1 -1.1 -4.4 -2.5 -2.1 -2.3 -2.6 -2.4 -5.7 -1.3 -1.9 0.6 -3.8 1.7 -4.2 2.5 -0.4 0.7 -1.8 1.3 -3 1.4 -1.9 0.1 -1.8 0.2 0.8 1.4 4.2 2 39.2 2 41.8 0.1 2.1 -1.6 2.2 -2.7 0.3 -2 -1.1 0.4 -1.3 0 -0.9 -1.5 0.5 -2 3.3 -3.8 3.3 -2.1 0 0.6 0.9 1 2 1 1.3 0 3 1.7 5 4.8 l2.9 4.7 -8.2 0.7 c-4.5 0.4 -12.2 1.2 -17.2 1.7 -6.2 0.8 -14 0.8 -24.8 0.1 -8.7 -0.5 -18.4 -0.8 -21.5 -0.5 -3.1 0.2 -13.5 0.7 -22.9 1 l-17.3 0.5 0 -3.3z"/>
 </g>
 <g fill="#cd2923">
  <path d="M911.5 484 c-4.2 -1 -24.4 -5.2 -55.5 -11.5 -14.6 -3 -45.4 -9.3 -68.5 -14 -56.3 -11.5 -139.8 -28.5 -167.5 -34.1 -18.2 -3.7 -24 -4.5 -30.1 -4.1 l-7.6 0.4 -6.6 -11.3 c-3.6 -6.2 -6.3 -11.5 -5.9 -11.8 1.5 -1.6 12.4 -0.1 39.2 5.5 16.2 3.3 54.9 11.2 86 17.5 31.1 6.3 66.2 13.5 78 15.9 11.8 2.4 42.4 8.7 68 13.9 54 11 69.7 14.2 76.1 15.7 l4.7 1 0.1 9 0.2 8.9 -3.8 -0.1 c-2.1 -0.1 -5.1 -0.4 -6.8 -0.9z"/>
  <path d="M440.8 445.4 c1.5 -2.5 4.1 -6.8 5.9 -9.7 1.8 -2.9 4.4 -7.3 5.8 -9.9 1.9 -3.6 3.1 -4.8 4.8 -4.8 1.3 0 2.7 -0.4 3.3 -0.9 0.5 -0.5 2.9 -1.2 5.4 -1.4 7.2 -0.9 17.8 -3.1 18.6 -4 0.4 -0.4 2 -0.7 3.5 -0.7 1.5 0 3 -0.4 3.4 -0.9 0.3 -0.6 2.7 -1.3 5.3 -1.7 2.6 -0.3 5.2 -1 5.7 -1.4 0.6 -0.4 4.8 -1.3 9.4 -1.9 4.6 -0.7 11.1 -2.1 14.5 -3.1 11.9 -3.6 18.8 -5 24.5 -5 l5.7 0 4.5 7.7 c2.4 4.2 4.6 8 4.7 8.5 0.2 0.4 -2.1 0.8 -5.1 0.8 -4.1 0 -5.8 0.5 -7.2 2 -1.4 1.6 -3.1 2 -7.6 2 -3.9 0 -7 0.6 -9.3 2 -2.9 1.6 -6.2 2 -19.3 2.5 -12.1 0.5 -18.5 1.2 -27 3.2 -10.5 2.5 -11.6 3 -15.5 7 l-4.2 4.3 2.9 0 3 0.1 -2.4 1.9 c-1.3 1.1 -3.3 2 -4.6 2 -1.2 0 -3 0.9 -4 2 -1.6 1.7 -3.1 2 -11.1 2 -5.1 0 -9.6 0.4 -9.9 1 -0.3 0.6 -1.9 1 -3.5 1 l-2.9 0 2.7 -4.6z"/>
 </g>
 <g fill="#189746">
  <path d="M898 570.4 c-10.2 -3.5 -27.7 -9.5 -39 -13.3 -11.3 -3.9 -33.8 -11.5 -50 -17.1 -16.2 -5.6 -39.4 -13.5 -51.5 -17.6 -132.9 -45.4 -136.1 -46.5 -138 -43.4 -0.3 0.6 -1 1 -1.5 1 -1.2 0 -15 -24.2 -14.4 -25.2 0.3 -0.4 3.3 -0.8 6.7 -0.8 5.3 0 13.5 2.5 63.6 19.6 123 41.8 190 64.7 199.1 67.9 5.2 1.8 13.8 4.7 19 6.4 5.2 1.7 14.1 4.8 19.8 6.8 l10.2 3.6 0 9.3 0 9.4 -2.7 -0.1 c-1.6 0 -11.1 -2.9 -21.3 -6.5z"/>
  <path d="M580.9 466.6 c1 -1.2 0.6 -1.7 -2.6 -2.5 -2.1 -0.6 -6.4 -1.1 -9.5 -1.1 -3.2 0 -5.8 -0.4 -5.8 -1 0 -0.5 -1 -1 -2.2 -1 -1.2 0 -4.4 -0.7 -7.2 -1.5 -7.6 -2.2 -21 -5.2 -30.6 -6.9 -4.7 -0.8 -10.7 -2 -13.5 -2.6 -4.8 -1.1 -27.1 -4.5 -38.4 -5.8 -5.2 -0.7 -5.3 -0.7 -3.3 -2.5 1.8 -1.6 4.9 -2 25.7 -2.8 14.2 -0.5 29.4 -0.5 38.2 0.1 8.1 0.5 15.1 0.6 15.6 0.3 0.5 -0.3 1.2 -0.1 1.6 0.6 0.4 0.6 8.3 2.2 17.7 3.7 9.3 1.4 17 2.7 17 2.7 0.8 0.9 12.4 20.6 12.4 21.1 0 0.3 -3.7 0.6 -8.1 0.6 -7 0 -8 -0.2 -7 -1.4z"/>
 </g>
 <g fill="#15130a">
  <path d="M210.6 920.9 c-27 -2.9 -50.8 -14.4 -71.1 -34.4 -22.4 -22.1 -33.9 -46.5 -36.5 -77.5 -1 -12 -1.4 -252.9 -0.4 -255.4 0.3 -0.9 11.5 -5 27.2 -10.1 14.7 -4.8 28.9 -9.6 31.6 -10.6 2.7 -1.1 6.8 -2.2 9 -2.5 2.3 -0.4 4.8 -1.2 5.6 -1.9 0.8 -0.7 4 -2.1 7 -3 3 -0.9 6.6 -2.1 8 -2.7 4.5 -1.8 17.5 -5.8 19 -5.8 0.8 0 2.8 -0.7 4.4 -1.5 1.5 -0.8 3.8 -1.5 5.1 -1.5 1.2 0 2.7 -0.6 3.3 -1.3 0.6 -0.7 5.3 -2.6 10.4 -4.1 5.1 -1.6 10.9 -3.4 12.8 -4.2 1.9 -0.7 5.1 -1.6 7 -2 1.9 -0.3 4 -1 4.5 -1.4 0.6 -0.4 6.9 -2.7 14 -5 7.2 -2.3 14.4 -4.8 16 -5.5 1.7 -0.7 14.5 -5 28.5 -9.5 14 -4.6 26.9 -8.8 28.5 -9.5 1.7 -0.7 9.8 -3.4 18 -6 8.3 -2.6 15.8 -5.1 16.7 -5.6 1 -0.5 2.7 -0.9 3.8 -0.9 1.1 0 2.8 -0.4 3.8 -0.9 7.7 -3.9 30.5 -11.1 35.2 -11.1 l4.2 0 -2.2 3.8 c-3.8 6.3 -77.7 131.7 -87.1 147.7 l-8.8 15 92 0.3 c50.5 0.1 133.3 0.1 183.8 0 l92 -0.3 -15.8 -27 -15.8 -27 0.3 -6 c0.3 -5.5 0.3 -5.7 -0.8 -2.7 -0.6 1.8 -1.6 3.1 -2.2 2.9 -0.6 -0.2 -3.2 -3.9 -5.7 -8.3 -2.5 -4.3 -7.6 -13 -11.3 -19.3 -3.7 -6.2 -6.8 -11.8 -6.9 -12.4 -0.2 -1 9.8 -3.5 14.8 -3.6 3 -0.1 11.3 3.2 92 36.9 21.5 8.9 53.6 22.3 71.5 29.7 17.9 7.4 35 14.5 38 15.8 7.3 3.2 47.2 19.8 58 24.2 4.7 1.9 8.8 4 9.2 4.7 1.2 1.8 0.9 177.9 -0.3 189.7 -1.9 19.2 -7 34.9 -16.4 50.8 -6.1 10.4 -15.9 22.5 -23.2 28.7 -8 6.7 -21.3 16.4 -22.6 16.4 -0.7 0 -2.5 0.8 -4.2 1.8 -5.2 3.2 -19.6 8.3 -29.5 10.5 l-9.5 2.1 -298.5 0.2 c-164.2 0.1 -302 -0.2 -306.4 -0.7z m292.4 -108.9 c0 -0.5 -2.3 -1.2 -5 -1.6 -7.7 -1 -8 -1.9 -8 -21.1 0 -9 0.2 -16.3 0.4 -16.3 0.2 0 2 0.7 3.9 1.5 4.8 2 17.3 1.9 23.4 -0.1 6.1 -2 13.5 -9.1 17.1 -16.4 2.4 -4.9 2.7 -6.6 2.7 -16 0 -9.5 -0.3 -11 -2.7 -15.6 -1.5 -2.9 -4.6 -6.8 -6.8 -8.7 -9.4 -8 -25.6 -7.2 -33.9 1.7 -3.2 3.4 -5.1 3.3 -5.1 -0.2 0 -1.6 -0.9 -3.8 -2 -5 l-2.1 -2.2 -6.8 3.5 c-3.7 1.9 -7.2 3.5 -7.7 3.5 -0.6 0 -2.1 1.2 -3.5 2.7 -2.1 2.3 -2.2 2.5 -0.4 1.8 4.8 -1.9 7.2 -1.7 8.9 0.6 1.4 2.1 1.6 7 1.6 42.2 l0 39.9 -3.7 3.4 -3.7 3.4 16.7 0 c10.1 0 16.7 -0.4 16.7 -1z m-89.7 -36.1 c4 -0.6 9.5 -2.2 12.4 -3.5 2.8 -1.3 5.6 -2.4 6.1 -2.4 2.3 0 16.1 -14.3 19 -19.7 10.4 -19.7 7.4 -43.7 -7.3 -58.7 -10.2 -10.3 -21 -14.1 -37.9 -13.3 -12 0.5 -21.2 3.2 -29 8.4 -29.1 19.2 -28.4 64 1.3 82.7 6.2 4 14.6 6.3 26.9 7.5 0.7 0 4.6 -0.4 8.5 -1z m169.2 -1.8 c2.2 -1 5.4 -3 7.1 -4.4 4 -3.3 6.4 -3.5 6.4 -0.4 0 3 2.7 6.7 4.8 6.6 0.9 0 5.5 -2 10.2 -4.4 8.2 -4.2 8.4 -4.4 4.8 -4.4 -2 -0.1 -4.4 -0.8 -5.2 -1.7 -0.9 -0.8 -1.7 -1.6 -1.8 -1.7 -0.1 -0.1 -0.5 -11.4 -0.8 -25.2 -0.4 -22.4 -0.7 -25 -2.2 -25.3 -1.9 -0.4 -20.8 7.7 -20.8 8.9 0 1.4 2.1 2.2 3.2 1.1 0.6 -0.6 1.8 -0.8 2.7 -0.5 3.7 1.3 4.1 3.3 4.1 20.5 l0 16.8 -4.1 3 c-8 5.7 -17.3 4.9 -21.4 -2 -1.8 -3.2 -2 -5.7 -2.5 -25.5 -0.6 -25.1 -0.2 -24.2 -9.1 -20.2 -3 1.3 -7.3 3.2 -9.7 4.2 -4.9 2.1 -5.1 4.2 -0.3 3.7 5.7 -0.6 6.1 0.4 6.1 17.3 0 17.2 1 24.3 4.1 28.7 4.5 6.3 16.2 8.7 24.4 4.9z m76.1 -0.6 c6.8 -3.4 10.4 -9 10.4 -16.5 0 -9.2 -2.8 -12.4 -19 -21.3 -5.4 -3.1 -8 -5.2 -9.4 -7.8 -2.3 -4.2 -1.6 -8.9 1.2 -8.9 1 0 2.2 -0.4 2.8 -0.9 0.8 -0.8 5.1 -1.5 8.1 -1.2 2.4 0.2 7.7 5.7 9.5 9.8 1.1 2.4 2.3 4.1 2.9 3.8 0.5 -0.4 0.9 -3.9 0.9 -8 l0 -7.3 -3.2 -1.2 c-15 -5.2 -32.2 1 -34.4 12.5 -1.5 8.1 1.9 14 11.2 19.4 12.5 7.3 15.5 9.5 16.9 12.2 2.1 4 1.9 9.5 -0.5 11.9 -6.5 6.5 -18.2 0.8 -24.3 -11.6 -1.1 -2.4 -2.5 -4.4 -2.9 -4.4 -0.4 0 -0.8 3.8 -0.8 8.4 0 9.4 0.4 10 7.2 12.1 7.4 2.3 17.6 1.9 23.4 -1z"/>
  <path d="M497.8 770 c-7.5 -4 -7.8 -5 -7.8 -25.4 l0 -18.1 3.4 -2.3 c10.6 -7.2 22.2 -4.4 27.4 6.6 2.4 5 2.7 6.9 2.7 16.2 0 9.4 -0.3 11.1 -2.7 16 -1.6 3.2 -3.9 6.2 -5.7 7.3 -4 2.3 -12.5 2.2 -17.3 -0.3z"/>
  <path d="M398.9 770.6 c-16.7 -5.9 -26.9 -24.2 -26.9 -48.1 0 -26.1 11.5 -40.5 32.4 -40.5 21.1 0 35.9 20.1 35.8 48.5 -0.1 8 -0.6 11.7 -2.7 18.4 -2.4 7.6 -3.3 9.1 -8.9 14.6 -4.1 4.1 -7.5 6.5 -10.2 7.3 -5.3 1.6 -14.9 1.5 -19.5 -0.2z"/>
  <path d="M899.5 598.9 c-9.3 -3.9 -19.5 -8.1 -22.5 -9.4 -3 -1.2 -9.5 -3.9 -14.4 -5.9 -4.9 -2 -17.3 -7.2 -27.6 -11.6 -10.3 -4.4 -22.5 -9.5 -27.1 -11.4 -4.6 -1.8 -11.8 -4.8 -15.9 -6.5 -4.1 -1.8 -10.6 -4.5 -14.5 -6.1 -3.8 -1.5 -18.5 -7.6 -32.5 -13.5 -14 -5.9 -31.6 -13.2 -39 -16.2 -7.4 -3 -14.8 -6.1 -16.5 -6.8 -1.6 -0.8 -9.7 -4.2 -18 -7.6 -8.2 -3.4 -18.1 -7.4 -22 -9 -23.8 -9.9 -24.5 -10.2 -26 -8.9 -0.9 0.7 -1.7 1.1 -1.8 0.9 -3.9 -5.7 -5.7 -9.4 -5.3 -10.5 0.4 -1 2.4 -1.4 7 -1.4 5.6 0 10.6 1.4 36.3 10.1 58 19.6 92.9 31.5 152.3 51.9 16.2 5.6 39.2 13.4 51 17.4 11.8 4 29.9 10.2 40.2 13.7 l18.8 6.4 0 13.6 c0 12.9 -0.1 13.7 -2.3 15.7 -1.3 1.2 -2.5 2.2 -2.8 2.2 -0.2 0 -8 -3.2 -17.4 -7.1z"/>
  <path d="M349 601.5 c0 -0.4 36.8 -63.1 49 -83.5 4.8 -8.1 6.1 -9.5 8.2 -9.5 2.6 0.1 2.9 -2.1 0.4 -2.7 -1.2 -0.3 30.1 -54.6 33.9 -58.8 1.6 -1.8 3 -2 13.8 -2 10.3 0 11.8 0.2 10.8 1.4 -1 1.2 -0.6 1.6 2.1 2.4 6.3 1.8 95.4 28.4 107.8 32.2 6.9 2.1 17.5 5.3 23.5 7 6.1 1.8 11.5 3.7 12.1 4.4 0.7 0.6 13.2 21.6 27.8 46.6 14.7 25 27.1 46.2 27.6 47 0.5 0.8 2.7 4.5 4.9 8.2 2.3 3.6 4.1 6.9 4.1 7.2 0 0.3 -73.3 0.6 -163 0.6 -89.6 0 -163 -0.2 -163 -0.5z"/>
  <path d="M899.1 554.5 c-11.8 -4.1 -25.3 -8.7 -30 -10.4 -9.6 -3.3 -110.2 -37.6 -198.2 -67.5 -31.6 -10.8 -58.9 -19.6 -60.5 -19.6 -1.7 0 -3.5 0.5 -4 1 -0.7 0.7 -2.2 -0.7 -4.7 -4.7 -3.3 -5.3 -3.4 -5.9 -2 -7 3.5 -2.7 14.8 -1.5 32.2 3.2 24.4 6.7 44.8 12.2 51.6 14 19 5 40.9 10.8 91.5 24.5 31.1 8.3 62.1 16.7 69 18.5 13.5 3.5 47.5 12.7 66 17.8 l11.5 3.2 0.3 17.3 c0.1 9.4 -0.1 17.2 -0.5 17.1 -0.5 0 -10.4 -3.4 -22.2 -7.4z"/>
  <path d="M102.6 536.9 c-1 -5.3 -0.7 -276.2 0.4 -291.2 2.1 -29.2 10.1 -53.1 25.7 -76.5 6.5 -9.9 25.1 -29 36.4 -37.5 8.2 -6.1 25.5 -15.7 28.4 -15.7 1 0 2.6 -0.6 3.4 -1.3 2.7 -2.3 9.9 -4.7 14.3 -4.7 2.3 0 4.9 -0.6 5.7 -1.4 0.9 -0.8 6.2 -2.4 11.8 -3.5 l10.2 -2.1 276.8 0.3 c309.3 0.3 278.9 -0.4 302.2 7.3 48.4 16.1 86.4 56.5 98.5 104.9 5.2 20.8 5.1 19 5.1 141 l0 114 -2.5 -0.3 c-1.4 -0.2 -3.1 -1.2 -3.9 -2.3 -1.1 -1.6 -2.6 -1.9 -8.7 -1.9 -7.4 0 -25.3 -3.2 -28.6 -5 -1 -0.6 -3.1 -1 -4.7 -1 -1.6 0 -4.3 -0.3 -6 -0.6 -2.6 -0.6 -3.1 -1.1 -3.1 -3.5 0 -2.6 -0.3 -2.9 -3.5 -2.9 -1.9 0 -3.5 0.4 -3.5 1 0 2.2 -5.8 2.1 -16.8 -0.1 -6.5 -1.3 -11.8 -2.7 -12 -3.1 -0.2 -0.4 -1.6 -0.8 -3 -0.8 -1.5 0 -7.8 -0.9 -13.9 -2.1 l-11.3 -2.1 -0.1 -3.2 c-0.1 -2.3 -0.3 -2.5 -0.6 -0.8 -0.7 3.5 -0.1 3.6 -29.3 -2.5 -11.8 -2.4 -23 -4.7 -24.7 -5 -1.8 -0.3 -3.3 -0.9 -3.3 -1.3 0 -1.2 -3.3 -2.2 -3.9 -1.1 -0.4 0.5 -5.2 -0.1 -12.1 -1.6 -6.3 -1.3 -14 -2.9 -17 -3.5 -31.8 -6 -45.3 -9.1 -47.1 -10.9 -1 -1 -3.2 -1.9 -4.8 -1.9 -2 0 -3.2 -0.6 -3.5 -1.8 -0.6 -1.7 -1.5 -1.8 -8.6 -1.4 -4.7 0.3 -8 0.1 -8 -0.5 0 -0.5 -2.5 -0.8 -5.7 -0.5 -4.3 0.2 -11.7 -0.9 -27.8 -4.4 -25.9 -5.5 -29.1 -6 -30.8 -4.5 -1.5 1.1 -0.7 2.4 -39.1 -62.9 -11.2 -19.1 -20.9 -34.5 -21.7 -34.5 -0.7 0 -3 2.9 -5.1 6.5 -2.1 3.6 -18.5 31.6 -36.5 62.2 l-32.8 55.7 -10.5 3.6 c-5.8 1.9 -11.4 3.9 -12.5 4.4 -1.1 0.4 -9.4 3.2 -18.5 6.2 -9.1 2.9 -17.2 5.6 -18 6.1 -0.8 0.4 -5.5 1.9 -10.5 3.4 -4.9 1.4 -10.3 3.2 -12 3.8 -1.6 0.7 -8.8 3.2 -16 5.5 -16 5.2 -28.4 9.7 -30.7 11.1 -1 0.5 -2.7 1 -3.8 1 -1.1 0 -14.1 4.1 -28.8 9 -14.7 5 -48.3 16.3 -74.7 25.1 -45.5 15.1 -50.6 16.9 -54.7 19 -1 0.5 -2.6 0.9 -3.6 0.9 -1 0 -10.3 2.9 -20.7 6.5 -10.4 3.6 -19 6.5 -19.1 6.5 -0.1 0 -0.4 -1.4 -0.8 -3.1z"/>
  <path d="M905 510.8 c-13.7 -4.1 -16.7 -4.9 -36.5 -9.9 -10.1 -2.5 -68.2 -18 -112.5 -30 -10.2 -2.8 -25.1 -6.8 -33.2 -9 -32.2 -8.5 -45 -12 -61.3 -16.4 -18.9 -5.2 -40.8 -11 -62 -16.4 -13.1 -3.4 -14.1 -3.8 -16.2 -7 -1.2 -1.8 -2 -3.7 -1.7 -4.2 1.1 -1.9 19.8 -0.9 31.9 1.6 14.3 2.9 19.3 3.9 30.5 6.1 4.7 0.9 9 2.2 9.5 2.9 0.6 0.7 3.7 1.5 7 1.8 11.5 1.1 14.5 1.7 41.7 7.2 17.6 3.6 27.7 6.1 28.4 7 0.8 1.1 3.2 1.5 8.7 1.5 5.3 0 7.6 0.4 8 1.3 0.3 0.9 1.6 1.2 3.4 1 3.7 -0.5 21.6 3.2 22.1 4.6 0.2 0.6 2.8 1.1 5.7 1.1 2.9 0 10.7 1.2 17.2 2.6 12.5 2.8 26 5.3 28.1 5.4 0.6 0 1.2 0.7 1.2 1.5 0 1.2 1.1 1.5 5.3 1.4 6 -0.2 52.7 8.8 54.2 10.5 0.6 0.6 3.9 1.2 7.5 1.3 3.5 0.1 6.6 0.7 6.8 1.2 0.2 0.6 2.4 1.1 4.8 1.1 2.4 0 4.4 0.5 4.4 1 0 0.6 0.9 1 1.9 1 1.1 0 2.3 0.5 2.6 1 0.3 0.6 1.5 1 2.5 1 1 0 2.5 0.7 3.4 1.5 0.8 0.8 1.9 1.5 2.5 1.5 0.7 0 1.1 4.9 1.1 14.5 0 13.2 -0.2 14.5 -1.7 14.4 -1 0 -7.9 -1.9 -15.3 -4.1z"/>
  <path d="M589.2 473.1 l-11.4 -3.6 2.5 -2.3 c2.1 -2 3.3 -2.3 8.7 -2 l6.3 0.3 3 5.3 c1.6 2.9 2.8 5.4 2.6 5.6 -0.2 0.1 -5.5 -1.3 -11.7 -3.3z"/>
  <path d="M563.5 446.7 c-10.4 -1.6 -19.2 -3.1 -19.4 -3.3 -0.2 -0.2 0.4 -1.3 1.3 -2.3 1.9 -2 6.1 -2.7 24.1 -3.7 l9 -0.4 3.7 6.5 c2.9 5.2 3.3 6.5 2 6.4 -0.9 -0.1 -10.2 -1.5 -20.7 -3.2z"/>
  <path d="M452.5 426 c1 -1.9 9.1 -15.9 18 -31 8.9 -15.1 21.7 -36.7 28.3 -48 6.6 -11.3 12.6 -20.5 13.3 -20.5 0.6 0 5.5 7.4 10.9 16.5 5.3 9.1 15.4 26.2 22.4 38 l12.6 21.5 -6.2 0.6 c-7.1 0.7 -15 2.2 -19.1 3.8 -1.6 0.6 -5 1.1 -7.7 1.1 -3.8 0 -5 -0.4 -5.3 -1.7 -0.3 -1 -0.5 -0.3 -0.6 1.6 l-0.1 3.4 -7.5 -0.6 c-6.8 -0.5 -7.5 -0.4 -7.5 1.3 0 1.3 -1.1 1.9 -4.5 2.4 -2.4 0.4 -4.7 1.1 -5 1.7 -0.4 0.5 -1.9 0.9 -3.4 0.9 -1.5 0 -3.1 0.3 -3.5 0.7 -0.8 0.8 -11 3 -18.1 3.9 -2.2 0.3 -4.9 0.9 -6 1.4 -1.1 0.5 -3.3 1.1 -5 1.5 -1.6 0.4 -4.1 1.6 -5.4 2.8 l-2.4 2.2 1.8 -3.5z"/>
  <path d="M535.3 425.3 c-1.6 -0.6 -1.7 -4.5 -0.1 -6.1 0.7 -0.7 3.9 -1.2 7.2 -1.2 4.4 0 6.5 -0.5 8 -1.9 1.7 -1.5 3.3 -1.7 8.6 -1.4 l6.5 0.5 2.7 4.8 2.6 4.7 -9 0.7 c-10.4 0.7 -24.7 0.7 -26.5 -0.1z"/>
 </g>
 <g fill="#191108">
  <path d="M864 883 c0 -2.7 0.3 -3 3 -3 3.3 0 4 2.1 1.6 4.6 -2.5 2.4 -4.6 1.7 -4.6 -1.6z"/>
  <path d="M491.7 804.9 c-1.1 -3.9 -0.8 -4.9 1.3 -4.9 2.3 0 2.7 2.7 0.7 5.5 -1.3 1.7 -1.4 1.7 -2 -0.6z"/>
  <path d="M416.9 782.9 c-0.6 -0.3 -0.9 -1.5 -0.7 -2.5 0.3 -1.6 1.4 -1.9 8.1 -2.2 l7.8 -0.3 -0.3 2.8 c-0.3 2.7 -0.4 2.8 -7.1 2.8 -3.7 0.1 -7.2 -0.2 -7.8 -0.6z"/>
  <path d="M537.3 765.5 c-2.7 -2.6 -2.1 -3.5 2.4 -3.5 3 0 3.3 0.3 3.3 3 0 3.7 -2.4 3.9 -5.7 0.5z"/>
  <path d="M640.8 752.8 c2.2 -2.2 1.2 -3 -1.5 -1.3 l-2.8 1.8 1.9 -2.1 c1.1 -1.2 1.5 -2.2 1 -2.2 -0.5 0 -0.3 -0.4 0.5 -0.9 1.9 -1.2 6.1 0.7 5.4 2.5 -0.3 0.8 -0.9 1.1 -1.4 0.8 -0.5 -0.3 -0.6 0.2 -0.3 1 0.5 1.2 0 1.6 -1.7 1.6 -1.8 0 -2 -0.3 -1.1 -1.2z"/>
  <path d="M428.8 702.9 c-1.5 -1 -0.2 -3.9 1.7 -3.9 0.8 0 1.5 0.4 1.5 0.9 0 0.5 0.7 1.6 1.5 2.4 1.2 1.3 1.1 1.5 -1.1 1.3 -1.4 0 -3.1 -0.4 -3.6 -0.7z"/>
  <path d="M886.4 615.5 c-1 -2.4 1.4 -4.7 3.7 -3.4 1 0.5 1.9 0.7 1.9 0.4 0 -0.3 0.9 -0.1 2 0.5 2.5 1.3 1.6 3.4 -1.1 2.7 -1.1 -0.3 -1.9 -0.1 -1.9 0.4 0 1.5 -4 1 -4.6 -0.6z"/>
  <path d="M320.5 611 c-0.8 -1.4 0.3 -3 2.1 -3 0.8 0 1.4 0.5 1.4 1 0 0.6 -0.6 1 -1.2 1 -0.9 0 -0.8 0.4 0.2 1 1.3 0.8 1.3 1 -0.2 1 -0.9 0 -2 -0.4 -2.3 -1z"/>
  <path d="M868.9 606.4 c-0.9 -0.8 -4.1 -1.8 -7.2 -2.1 -3.2 -0.3 -5.7 -0.9 -5.7 -1.4 0 -0.4 -0.7 -1.5 -1.6 -2.3 -1.4 -1.5 -1.3 -1.6 1.3 -1.6 1.6 0 5.3 0.7 8.1 1.5 4 1.2 5.2 2 5.2 3.5 0 1.4 0.7 2 2.1 2 1.1 0 1.7 0.5 1.4 1 -0.9 1.4 -1.8 1.3 -3.6 -0.6z"/>
  <path d="M916.8 606 l-3.8 -1.7 2.8 -2.6 c4.2 -4 6.2 -3.6 6.2 1.2 0 2.2 -0.3 4.2 -0.7 4.4 -0.5 0.2 -2.5 -0.3 -4.5 -1.3z"/>
  <path d="M660 590.3 c0 -0.7 0.5 -1.3 1 -1.3 0.6 0 1 -1.5 1 -3.4 0 -4.9 1.2 -5.1 3.7 -0.5 1.7 3 1.8 3.9 0.7 3.9 -0.8 0 -1.4 0.6 -1.4 1.3 0 0.6 -1.1 1.2 -2.5 1.2 -1.4 0 -2.5 -0.6 -2.5 -1.2z"/>
  <path d="M827.3 589.1 c-5.5 -2.2 -7.2 -3.8 -5 -4.7 1.9 -0.7 8.2 2.9 9.1 5.1 0.3 0.8 0.4 1.5 0.3 1.4 -0.1 -0.1 -2.1 -0.9 -4.4 -1.8z"/>
  <path d="M812.7 587.3 c-1.3 -1.2 -0.7 -3.3 0.8 -3.3 0.8 0 1.5 0.9 1.5 2 0 2 -1.1 2.6 -2.3 1.3z"/>
  <path d="M789.3 576.3 c-0.7 -0.3 -1.3 -1.3 -1.3 -2.3 0 -1 -0.9 -2 -2.1 -2.3 -1.8 -0.5 -1.9 -0.8 -0.8 -2 1.1 -1.2 1.8 -1.1 4.6 0.6 1.8 1 3.3 2.2 3.3 2.6 0 1.5 -2.6 3.8 -3.7 3.4z"/>
  <path d="M884.1 569.9 c-1.9 -0.7 -2.1 -1.2 -1.1 -2.3 2.1 -2.6 8 -0.8 8 2.3 0 1.3 -3.6 1.3 -6.9 0z"/>
  <path d="M670 564.2 c0 -2.2 0.4 -4.3 0.8 -4.6 1 -0.6 1 7 0 8 -0.5 0.4 -0.8 -1.1 -0.8 -3.4z"/>
  <path d="M662.7 556.9 c-3 -4.7 -3.3 -5.7 -2.4 -8.4 1.2 -3.5 2.4 -4.5 5.5 -4.5 2.1 0 2.2 0.4 2.2 7.8 0 10.8 -1 11.8 -5.3 5.1z"/>
  <path d="M748.6 557.9 c-1.1 -1.1 -3.1 -1.9 -4.6 -1.9 -2.4 0 -6 -2.9 -6 -5 0 -1.6 7.3 -0.1 9.5 2 2.2 2.1 5.5 2.7 5.5 1 0 -0.6 0.9 -0.6 2.3 0.1 1.3 0.6 2.4 1.7 2.4 2.5 0 1 -0.4 1.1 -1 0.5 -0.7 -0.7 -1.9 -0.4 -3.6 0.8 -2.5 1.8 -2.7 1.8 -4.5 0z"/>
  <path d="M812.5 559 c-0.7 -1.1 3.5 -3 6.6 -3 1.9 0 4.9 2.1 4.9 3.4 0 1 -10.9 0.6 -11.5 -0.4z"/>
  <path d="M827.2 554.4 c-1.1 -1.2 -1.1 -1.7 0.2 -2.9 2.3 -2.3 3.6 -1.8 3.6 1.5 0 3.2 -1.7 3.9 -3.8 1.4z"/>
  <path d="M836 552.5 c0 -1.5 2.6 -2 5.4 -0.9 2.8 1.1 1.7 2.4 -1.9 2.4 -2.4 0 -3.5 -0.5 -3.5 -1.5z"/>
  <path d="M901.2 550.1 c0.4 -1.9 7.5 -4.5 9.7 -3.6 1.3 0.5 1 1.1 -1.3 3 -3.4 2.7 -8.9 3.1 -8.4 0.6z"/>
  <path d="M693.7 536.8 c-0.8 -3 2.3 -6 4.7 -4.6 1 0.6 2.6 0.8 3.7 0.5 1 -0.3 1.7 -0.1 1.4 0.3 -0.3 0.5 0.1 1.1 0.7 1.3 0.9 0.4 0.7 0.6 -0.3 0.6 -0.9 0.1 -2.4 1 -3.4 2.1 -2.5 2.7 -6.1 2.6 -6.8 -0.2z"/>
  <path d="M759.8 536.2 c-4 -1.9 -5.6 -3.2 -5.4 -4.4 0.3 -2 1.6 -3.7 1.6 -2 0 0.6 1 1.4 2.3 1.8 1.2 0.4 3.5 1.7 5 3 1.6 1.3 3.3 2.2 3.8 1.8 0.5 -0.3 0.9 0.2 0.9 1 0 2.2 -1.7 2 -8.2 -1.2z"/>
  <path d="M842.2 530 c-4.2 -1 -5.3 -2 -2.1 -2 1.3 0.1 3.5 0.7 4.9 1.5 2.8 1.6 2.2 1.7 -2.8 0.5z"/>
  <path d="M876 528 l-2.5 -0.6 2.8 -0.6 c1.5 -0.3 3 -0.2 3.2 0.3 0.8 1.2 -0.8 1.6 -3.5 0.9z"/>
  <path d="M912.7 527.8 c-0.7 -0.4 -2.2 -0.8 -3.4 -0.8 -1.3 0 -2.3 -0.3 -2.3 -0.8 0 -0.4 -1.8 -0.7 -3.9 -0.7 -3.2 0 -3.7 -0.2 -2.9 -1.2 0.9 -1.1 0.1 -1.3 -3.8 -1.3 -8.5 -0.1 -14.8 -1.5 -13.8 -3.2 0.4 -0.6 -0.8 -0.7 -3.1 -0.4 -2.5 0.4 -3.4 0.3 -3 -0.5 0.5 -0.6 0 -0.9 -1.2 -0.7 -1.1 0.2 -2.8 -0.3 -3.7 -1.1 -0.9 -0.8 -3.7 -1.5 -6.1 -1.5 -2.8 -0.1 -4 -0.5 -3.4 -1.1 1.6 -1.6 1 -2.2 -1.5 -1.8 -1.3 0.3 -3.4 0 -4.6 -0.7 -1.2 -0.6 -4.5 -1.4 -7.3 -1.6 -2.9 -0.3 -6.5 -0.7 -8.2 -0.9 -1.6 -0.2 -3.4 -0.4 -3.8 -0.4 -0.5 -0.1 -0.5 -0.6 -0.1 -1.2 0.5 -0.9 -0.1 -1 -2 -0.5 -2 0.5 -2.6 0.3 -2.1 -0.5 0.5 -0.8 0.1 -0.9 -1.4 -0.4 -1.1 0.3 -2.6 0.3 -3.3 -0.2 -0.7 -0.4 -1.7 -0.8 -2.3 -0.8 -1.7 0 -10.5 -3.7 -10.5 -4.4 0 -0.4 -0.8 -0.8 -1.7 -0.9 -2.2 -0.2 -4.4 -0.7 -6.3 -1.5 -0.8 -0.3 -4.5 -0.9 -8.3 -1.2 -3.7 -0.4 -6.5 -1 -6.2 -1.5 0.7 -1.1 -5.1 -2.4 -6.6 -1.4 -0.8 0.4 -0.9 0.3 -0.5 -0.4 0.4 -0.7 0.2 -1.3 -0.3 -1.3 -0.6 -0.1 -1.5 -0.3 -2.1 -0.4 -0.5 -0.1 -2.8 -0.3 -4.9 -0.4 -2.2 0 -4.7 -0.8 -5.6 -1.7 -0.8 -0.9 -3.3 -1.8 -5.5 -2.1 -2.2 -0.3 -4 -1 -4 -1.4 0 -0.5 -1.1 -0.9 -2.4 -0.9 -1.4 0 -2.8 -0.5 -3.1 -1 -0.6 -1 -3.4 -0.8 -6.7 0.5 -1.1 0.4 -1.8 0.3 -1.8 -0.4 0 -0.6 -1 -1.1 -2.2 -1.1 -1.2 0 -2.9 -0.6 -3.7 -1.4 -2.2 -1.8 -10.9 -4.6 -12.5 -4 -0.8 0.3 -1.7 0.1 -2 -0.5 -0.4 -0.6 -1.9 -0.8 -3.5 -0.5 -1.8 0.4 -3.3 0 -4.4 -1.1 -0.9 -0.9 -3.4 -1.8 -5.4 -1.9 -5.2 -0.4 -15.5 -2.7 -17 -3.9 -0.7 -0.5 -1.8 -0.5 -2.4 -0.1 -0.8 0.4 -0.9 0.3 -0.5 -0.4 0.5 -0.8 -0.6 -1.2 -3.4 -1.2 -2.7 0 -5.3 -0.8 -7.2 -2.1 -2.5 -1.8 -3.8 -2.1 -8.5 -1.5 -4.7 0.5 -5.4 0.4 -4.9 -0.9 0.4 -1.3 -0.3 -1.7 -2.6 -1.5 -0.2 0 -3.6 -1.1 -7.6 -2.4 -4 -1.4 -7 -2.1 -6.7 -1.5 1.1 1.7 -1.8 0.9 -3.9 -1 -2.8 -2.6 -10.6 -3.3 -12.4 -1.1 -0.8 0.9 -1.1 1 -0.6 0.1 0.5 -1.1 -0.6 -1.3 -6 -0.9 -5.8 0.3 -6.6 0.2 -6.6 -1.3 0 -1.2 0.6 -1.7 1.9 -1.4 1.1 0.2 2.5 -0.3 3.2 -1.1 2.5 -3 -9.9 -6.1 146.9 36.1 30 8.1 60.1 16.2 67 18 6.9 1.8 22 5.8 33.5 9 11.6 3.1 26.1 7 32.3 8.7 6.1 1.7 11.2 3.3 11.2 3.7 0 0.9 -6.8 0.8 -8.3 -0.1z"/>
  <path d="M677 527.1 c0 -0.5 -1.7 -1.5 -3.7 -2.2 -2.1 -0.6 -5.1 -1.9 -6.8 -2.7 -1.6 -0.9 -4.9 -1.6 -7.3 -1.6 -4.4 -0.1 -5.4 -2 -1 -2.2 1.4 -0.1 3.1 -0.5 3.8 -0.9 0.9 -0.5 1.1 -0.4 0.6 0.3 -0.5 0.8 0.5 1.2 3.2 1.2 4.6 0 12.2 3.4 12.2 5.5 0 0.8 0.5 1.5 1 1.5 0.6 0 1 0.5 1 1 0 0.6 -0.7 1 -1.5 1 -0.8 0 -1.5 -0.4 -1.5 -0.9z"/>
  <path d="M745.5 523 c-2.2 -1 -5 -2.7 -6.3 -3.8 l-2.4 -1.8 3.4 0.3 c7.9 0.8 10.4 1.1 12.3 1.6 1.1 0.3 2.3 0.6 2.6 0.6 1.5 0.2 0.4 3.1 -1.2 3.1 -1 0 -2.1 0.5 -2.4 1 -0.8 1.3 -1.2 1.2 -6 -1z"/>
  <path d="M806 517.5 c0 -0.8 0.9 -1.5 2 -1.5 1.1 0 2 0.7 2 1.5 0 0.8 -0.9 1.5 -2 1.5 -1.1 0 -2 -0.7 -2 -1.5z"/>
  <path d="M791.5 514 c0.3 -0.5 -0.3 -1.1 -1.2 -1.3 -1.2 -0.3 -0.8 -0.5 0.9 -0.6 3.3 -0.1 4.6 1.5 1.8 2.2 -1.1 0.3 -1.8 0.1 -1.5 -0.3z"/>
  <path d="M912 512.9 c-3.6 -1.1 -17.4 -4.9 -30.8 -8.4 -35.6 -9.5 -35.5 -9.4 -34.2 -11 1.2 -1.5 4.4 -0.8 13.5 3 1.7 0.6 7.5 2 13 2.9 18.4 3.2 20.5 3.7 21.7 5.5 0.8 1.1 3.3 2.1 6.7 2.5 3 0.4 7.4 1.6 9.7 2.7 2.4 1 5.2 1.9 6.2 1.9 1.1 0 2.5 0.7 3.2 1.5 1.7 2.1 -0.7 1.9 -9 -0.6z"/>
  <path d="M800 511.6 c0 -1.2 1 -1.6 4.2 -1.6 4.7 0 4.2 1.4 -0.9 2.5 -2.6 0.5 -3.3 0.3 -3.3 -0.9z"/>
  <path d="M402 511.3 c0 -0.9 5 -8.2 6.1 -8.9 1.5 -0.9 3.9 2.3 3.9 5.3 0 1.3 0.5 2.3 1 2.3 0.6 0 1 0.5 1 1 0 0.6 -2.4 1 -6 0.9 -3.3 -0.1 -6 -0.4 -6 -0.6z"/>
  <path d="M684.2 509.1 c-3.4 -1.6 -5.1 -3 -4.7 -3.8 0.2 -0.8 -0.2 -1.6 -1 -1.9 -1.1 -0.5 -1.2 -1.1 -0.4 -2.5 1.2 -2.3 3.2 -2.4 5.3 -0.3 1.9 1.9 1.1 3.8 -1.4 3.1 -3.8 -1 -1.3 2.8 2.8 4.3 2.3 0.8 4.4 2 4.6 2.7 0.3 0.7 0.4 1.2 0.3 1.1 -0.1 0 -2.6 -1.2 -5.5 -2.7z"/>
  <path d="M709.5 509 c-0.3 -0.5 -1.5 -1 -2.6 -1 -1 0 -1.9 -0.4 -1.9 -1 0 -0.5 0.8 -1 1.8 -1 2.8 0.1 7.1 4 4.3 4 -0.6 0 -1.3 -0.4 -1.6 -1z"/>
  <path d="M769.7 505.9 c-2.7 -1.6 -1.1 -2.8 3.3 -2.6 2.5 0.1 4 0.6 4 1.4 0 0.7 -0.6 1.3 -1.4 1.3 -0.8 0 -2 0.2 -2.8 0.5 -0.7 0.2 -2.1 0 -3.1 -0.6z"/>
  <path d="M799.7 505.3 c-2.7 -2.7 1.4 -4.4 5.5 -2.2 1.7 0.9 1.8 1.3 0.7 2 -1.7 1 -5.3 1.2 -6.2 0.2z"/>
  <path d="M906 504.9 c0 -0.5 -0.4 -0.8 -0.9 -0.4 -0.5 0.3 -1.2 0.1 -1.6 -0.5 -0.4 -0.6 0.6 -1 2.4 -1 1.7 0 3.1 0.5 3.1 1.1 0 0.5 0.5 0.7 1.2 0.3 0.7 -0.4 0.8 -0.3 0.4 0.4 -0.9 1.5 -4.6 1.6 -4.6 0.1z"/>
  <path d="M758.5 502.5 c-0.5 -0.2 -2.2 -0.6 -3.7 -0.9 -4.1 -0.9 -3.4 -2.6 1 -2.6 2.6 0 4.5 0.7 5.7 2 1.7 1.9 1.7 2 -0.1 1.9 -1 0 -2.3 -0.2 -2.9 -0.4z"/>
  <path d="M743.5 497 c-0.3 -0.5 0.3 -1 1.4 -1 1.1 0 2.3 0.5 2.6 1 0.3 0.6 -0.3 1 -1.4 1 -1.1 0 -2.3 -0.4 -2.6 -1z"/>
  <path d="M662.7 492.9 c-2 -1.1 -3.7 -2.1 -3.7 -2.4 0 -0.7 4.1 0.4 5.4 1.4 0.6 0.5 2 1.1 3.1 1.3 1.6 0.3 1.7 0.5 0.5 1 -0.9 0.3 -3.2 -0.3 -5.3 -1.3z"/>
  <path d="M592.3 492.4 c-0.7 -2 1.2 -3.3 3.8 -2.7 2.2 0.6 3.6 2.3 1.9 2.3 -0.6 0 -0.9 0.4 -0.6 0.8 0.2 0.4 -0.7 0.9 -2 1 -1.5 0.1 -2.7 -0.5 -3.1 -1.4z"/>
  <path d="M901.7 492.6 c-1.3 -1 -1.5 -1.5 -0.5 -1.8 2 -0.7 4.9 0.3 4.5 1.5 -0.5 1.7 -2 1.8 -4 0.3z"/>
  <path d="M912 489.4 c0 -2.2 0.3 -2.4 2.3 -1.9 1.7 0.5 1.9 0.4 0.7 -0.4 -0.8 -0.6 -2.5 -0.8 -3.8 -0.4 -1.6 0.4 -2.2 0.1 -2 -0.8 0.2 -0.8 -0.7 -1.5 -1.9 -1.7 -1.3 -0.2 -2.3 -0.8 -2.3 -1.3 0 -0.5 -2 -0.9 -4.5 -0.9 -3.1 0 -4.5 -0.4 -4.5 -1.4 0 -1.3 -4.2 -1.4 -10 -0.1 -1.4 0.3 -4.3 0.2 -6.6 -0.1 -5 -0.7 -5.6 -3.1 -0.6 -2.6 2.4 0.3 3.3 0.1 2.8 -0.7 -0.4 -0.6 -2.7 -1.1 -5.1 -1.1 -2.4 0 -4.7 -0.5 -5.1 -1.1 -0.8 -1.4 -5.6 -0.2 -6.7 1.7 -0.4 0.8 -1.3 1.4 -1.9 1.4 -0.7 0 -0.6 -0.5 0.1 -1.4 1 -1.2 0.8 -1.5 -1.1 -1.9 -2.3 -0.4 -2.3 -0.4 0.2 -0.7 2.8 -0.3 -9.9 -3.1 -14.3 -3.2 -1.8 -0.1 -2.6 -0.5 -2.3 -1.3 0.6 -1.7 -6.7 -2.6 -12.4 -1.5 -3.8 0.8 -6.3 0.8 -10.2 0.1 -0.5 0 -0.8 -0.7 -0.8 -1.5 0 -2.1 -13.3 -4.6 -14.5 -2.6 -0.7 1.2 -6.2 1.2 -9 0 -1.1 -0.5 -1.7 -0.9 -1.2 -1.1 0.4 -0.1 1.2 -0.3 1.7 -0.4 0.6 -0.1 1.3 -0.4 1.8 -0.5 0.4 -0.1 1.6 -0.2 2.7 -0.1 4.1 0.1 -2.9 -1.7 -13.1 -3.4 -5.5 -1 -11.5 -1.5 -13.2 -1.1 -1.8 0.3 -4.5 0.9 -6.2 1.2 -1.6 0.4 -3 1.3 -3 2 0 1.4 -5 2 -6.3 0.8 -0.9 -0.9 0.4 -3.5 1.4 -2.8 0.5 0.3 0.9 0.1 0.9 -0.5 0 -0.5 0.8 -1.2 1.8 -1.4 0.9 -0.3 -1.8 -0.5 -6 -0.6 -5.1 -0.1 -7.8 -0.5 -7.8 -1.2 0 -0.9 2.6 -1 9.3 -0.6 5.9 0.4 8.6 0.2 7.6 -0.3 -0.9 -0.6 -3.9 -1.1 -6.5 -1.4 -2.7 -0.2 -5.7 -0.7 -6.8 -1.1 -1.1 -0.5 -2.6 -0.3 -3.6 0.3 -2 1.2 -6 0.5 -7.6 -1.4 -0.7 -0.9 -4 -1.4 -10.2 -1.5 -5 -0.1 -8.9 -0.6 -8.6 -1 0.3 -0.5 1.1 -0.6 1.7 -0.2 0.7 0.3 0.4 -0.3 -0.6 -1.4 -1.3 -1.5 -3.5 -2.2 -8.6 -2.7 -3.7 -0.3 -8.8 -1.3 -11.2 -2.1 -2.4 -0.9 -6.7 -1.6 -9.6 -1.6 -2.9 -0.1 -6 -0.7 -7 -1.5 -1 -0.7 -3.2 -1.4 -5 -1.4 -1.7 0 -3.5 -0.5 -3.8 -1 -0.4 -0.6 -1 -0.8 -1.5 -0.5 -0.5 0.3 -1.8 0.1 -2.9 -0.4 -1.2 -0.7 -3.6 -0.8 -6.3 -0.3 -2.9 0.6 -5.1 0.4 -6.8 -0.5 -3 -1.5 -6 -1.6 -9.5 -0.3 -1.7 0.7 -2.4 0.7 -2 0 0.3 -0.6 -0.1 -1 -0.9 -1 -0.9 0 -1.5 -0.5 -1.4 -1.2 0.2 -0.7 -0.1 -1.3 -0.7 -1.3 -0.5 -0.1 -1.7 -0.4 -2.5 -0.7 -9.5 -3.3 -15 -3.8 -15 -1.3 0 1.1 -1.1 1.5 -4.2 1.5 l-4.3 -0.1 2.7 -2.4 2.7 -2.4 -2.7 -0.5 c-3.8 -0.8 -9 -1.5 -14.2 -2.1 -2.5 -0.2 -6.1 -0.9 -8 -1.5 -4.4 -1.3 -5.3 -1.3 -4.4 0.1 0.4 0.7 -0.4 1 -2.2 0.8 -1.6 -0.2 -3.5 0 -4.2 0.5 -0.9 0.5 -1.2 -0.1 -1 -2.3 0.4 -5.4 -12.3 -7.7 198.3 35.4 23.1 4.7 53.9 11 68.5 14 14.6 2.9 32.1 6.5 39 8 6.9 1.4 15.1 3.1 18.3 3.7 l5.7 1.2 0 3.9 c0 3.7 -0.1 3.9 -2.5 3.3 -1.8 -0.5 -2.7 -0.2 -3.1 0.9 -0.4 0.8 -1.5 1.5 -2.5 1.5 -1.4 0 -1.9 -0.7 -1.9 -2.6z"/>
  <path d="M721 489.5 c0 -1 1 -1.5 3.3 -1.5 4.4 0 6.7 1.5 3.5 2.3 -4 1.1 -6.8 0.8 -6.8 -0.8z"/>
  <path d="M559.6 487.2 c-0.8 -0.8 -0.7 -2.5 0.3 -4.1 0.7 -1.1 1.8 -0.9 5.9 1 2.8 1.3 5.1 2.6 5.2 2.9 0 0.7 -10.7 0.9 -11.4 0.2z"/>
  <path d="M706.5 485.1 c-2.6 -0.4 -3.6 -0.9 -2.7 -1.4 1.6 -1.1 9.2 0.1 9.2 1.4 0 1 -0.3 1 -6.5 0z"/>
  <path d="M628 481 c0 -0.5 0.9 -1 2 -1 1.1 0 2 0.5 2 1 0 0.6 -0.9 1 -2 1 -1.1 0 -2 -0.4 -2 -1z"/>
  <path d="M718.8 481.2 c-2.2 -0.4 -2.3 -1.6 -0.3 -3.2 1.1 -0.9 1.5 -0.9 1.5 -0.1 0 0.7 0.3 1 0.8 0.8 0.4 -0.3 1.5 -0.1 2.5 0.2 1.7 0.6 1.7 0.8 -0.5 1.7 -1.2 0.6 -3.1 0.8 -4 0.6z"/>
  <path d="M816.7 480.8 c0.7 -1.2 10.1 -0.9 10.8 0.3 0.5 0.7 -1.3 0.9 -5.3 0.7 -3.3 -0.2 -5.8 -0.6 -5.5 -1z"/>
  <path d="M700.3 478.7 c-2.3 -0.5 -4.4 -1.6 -4.8 -2.5 -0.4 -1.2 0.2 -1.4 3.9 -0.9 5.2 0.7 9.7 2.7 9 3.8 -0.6 1.1 -2.6 1 -8.1 -0.4z"/>
  <path d="M528.1 475.8 c-0.7 -2 -1.4 -2.1 -7.7 -1.9 l-6.9 0.2 2.2 -2.1 c2.3 -2.1 9.1 -3.3 11.3 -2 0.6 0.4 1 1.3 0.8 2 -0.2 0.8 1 1.6 3 2 1.8 0.4 3.5 1 3.8 1.3 0.3 0.3 2 0.1 3.8 -0.4 2.5 -0.7 4.1 -0.4 7.1 1.1 l3.9 2 -10.2 0 c-9.6 0 -10.3 -0.1 -11.1 -2.2z"/>
  <path d="M677.3 474.9 c-3.7 -1.3 -3.7 -2.9 -0.1 -2.9 2.8 0 8.4 2.6 6.8 3.1 -1.8 0.6 -4.9 0.5 -6.7 -0.2z"/>
  <path d="M919.9 470.6 c-0.5 -0.5 -16.4 -3.8 -81.9 -17.2 -25.6 -5.2 -56.2 -11.5 -68 -13.9 -11.8 -2.4 -46.9 -9.6 -78 -15.9 -31.1 -6.3 -70.2 -14.3 -86.9 -17.7 -25.9 -5.3 -30.6 -6.1 -32.5 -5 -1.3 0.9 -1 0.1 1.1 -2 l3.2 -3.2 6.8 1.8 c3.7 1 7.3 2.2 7.9 2.7 1.2 0.9 8.5 2.4 18.4 3.7 3 0.3 6.1 1 6.7 1.4 0.7 0.4 2.5 0.1 4 -0.7 1.6 -0.9 2.1 -1.6 1.3 -1.6 -1.2 0 -1.1 -0.4 0.4 -1.5 1.4 -1 4.4 -1.5 9.5 -1.5 5.3 0 7.1 0.3 6.1 1 -0.8 0.5 -2.5 1 -3.7 1 -1.3 0 -2.3 0.5 -2.3 1 0 0.6 -1.8 1 -4 1 -3 0 -4 0.4 -4 1.6 0 1.3 0.8 1.5 4.3 1 9.2 -1.2 11.7 -1.8 11.7 -3.2 0 -1.1 1.7 -1.4 7 -1.4 3.9 0 7.2 0 7.5 0 0.3 0 0.5 0.3 0.5 0.8 0 0.4 -2.3 0.8 -5.2 1 -7.5 0.3 -9.8 1 -9.8 2.8 0 1.3 1.1 1.4 7.9 0.8 7.5 -0.6 7.9 -0.5 8.6 1.5 0.4 1.5 1.5 2.1 3.6 2.1 1.9 0 3.8 0.9 5.3 2.5 1.3 1.4 3 2.5 3.8 2.5 0.8 0 1.8 0.4 2.4 0.8 0.9 0.9 7.6 2.1 22.9 4.2 4.4 0.6 11.1 1.6 14.9 2.1 3.8 0.5 7.8 1.6 8.9 2.4 1.8 1.2 2.2 1.2 3.1 0 0.7 -0.9 3.8 -1.7 7.7 -2.1 5.5 -0.5 6.7 -0.4 7.2 1 0.6 1.4 -0.4 1.6 -7.1 1.7 l-7.7 0 6.5 1.7 c6.1 1.6 6.6 1.6 8.4 0 1.7 -1.5 2.1 -1.5 5.2 0 1.9 0.8 3.4 1.9 3.4 2.4 0 0.4 1.3 0.8 2.8 0.8 1.5 0 3.2 0.4 3.8 1 1.4 1.4 11.6 3.8 21 4.9 4.5 0.6 8.7 1.1 9.5 1.3 0.8 0.2 1.5 -0.7 1.7 -1.9 0.3 -1.9 1 -2.3 3.8 -2.3 3.7 0 4.3 1 1.9 3 -1.4 1.1 -1.4 1.5 0.2 3 2.1 1.9 6.4 1.5 5.6 -0.6 -0.3 -0.8 0.5 -1.8 2.1 -2.4 1.4 -0.5 2.6 -1.4 2.6 -2 0 -0.6 2.5 -1 5.8 -1 3.8 0 5.2 0.3 4.3 0.9 -1.1 0.7 -0.7 1 1.5 1.4 2.1 0.3 1.7 0.4 -1.6 0.6 -5.3 0.2 -8.3 1.6 -6.1 3 0.9 0.6 1 1.1 0.2 1.5 -0.8 0.5 -0.6 1.3 0.6 2.4 1.2 1.2 3.6 1.7 8.2 1.9 9.9 0.2 19.1 1.5 18.5 2.4 -0.3 0.5 0.6 0.9 2.1 0.9 1.4 0 5.1 0.9 8.2 2 6.8 2.4 9.6 2.5 11.7 0.5 1 -1 3.5 -1.5 8 -1.5 3.6 0 6.8 -0.4 7.1 -1 0.3 -0.5 1.7 -1 3.1 -1 3.1 0 3.2 2.7 0.1 3.9 -1.3 0.5 -2.8 1.6 -3.5 2.4 -1 1.2 -0.8 1.6 1 2.1 4.3 1.1 5.8 0.7 5.8 -1.5 0 -2 0.4 -2.1 4.7 -1.5 5.4 0.7 8.6 2.9 5.8 4 -1 0.3 -1.4 0.2 -0.9 -0.5 0.4 -0.7 -0.3 -0.9 -1.7 -0.7 -2.6 0.3 -3 1.8 -0.8 2.9 4.7 2.2 9.9 3.1 21.4 3.6 12.6 0.6 13.1 0.7 15.9 3.5 1.8 1.9 2.5 3.3 1.9 3.9 -0.5 0.5 -1.1 0.7 -1.4 0.5z"/>
  <path d="M766 467.4 c0 -1 1.3 -1.4 4.2 -1.4 3.3 0 3.9 0.3 3 1.2 -1.8 1.8 -7.2 1.9 -7.2 0.2z"/>
  <path d="M491.4 459.3 c0.5 -1.3 -3.1 -2.9 -8.6 -3.9 -2.2 -0.4 -3.8 -0.2 -3.8 0.3 0 0.6 -3.4 1 -7.5 1.1 -6.5 0 -7.5 -0.2 -7.5 -1.7 0 -1.3 0.8 -1.8 3 -1.9 1.7 0 3 0.2 3 0.6 0 0.4 4.2 0.8 9.3 0.8 7.2 0.1 11.1 0.8 18 3 l8.8 2.9 -7.5 0 c-5.4 0 -7.5 -0.3 -7.2 -1.2z"/>
  <path d="M632.3 459.8 c0.5 -1.7 6 -1.8 8.2 -0.1 1.7 1.1 1.3 1.3 -3.4 1.3 -3.8 0 -5.1 -0.4 -4.8 -1.2z"/>
  <path d="M892.2 457.8 c-2 -2 -1.4 -2.8 1.9 -2.8 2.4 0 3 0.4 2.7 1.7 -0.4 2.2 -2.9 2.8 -4.6 1.1z"/>
  <path d="M607.1 451.6 c-2.4 -2.9 4.1 -2.9 8.4 0.1 1.8 1.2 1.5 1.3 -2.7 1.3 -2.7 0 -5 -0.6 -5.7 -1.4z"/>
  <path d="M888.2 450.3 c-3.9 -0.8 -1.3 -2.3 3.9 -2.3 3.6 0 4.9 0.4 4.7 1.3 -0.5 1.3 -4.7 1.8 -8.6 1z"/>
  <path d="M569.1 444.4 c-1.8 -0.8 -3.1 -1.8 -2.8 -2.1 0.9 -0.8 10.7 1.9 10.1 2.9 -0.7 1.2 -3.4 0.9 -7.3 -0.8z"/>
  <path d="M698 445.2 c0 -1.2 2.3 -3.2 3.7 -3.2 0.7 0 1.7 0.9 2.3 2 1 1.8 0.8 2 -2.5 2 -1.9 0 -3.5 -0.4 -3.5 -0.8z"/>
  <path d="M815.4 443.3 c0.7 -1.2 -2 -1.9 -4.8 -1.4 -0.5 0.1 -0.4 -0.5 0.4 -1.3 0.7 -0.9 2 -1.6 3 -1.6 2.2 0 3.5 3 1.9 4.4 -0.9 0.8 -1 0.8 -0.5 -0.1z"/>
  <path d="M672 439 c0 -0.6 3.5 -1 8.6 -1 5.4 0 8.3 0.4 7.9 1 -0.3 0.6 -4.2 1 -8.6 1 -4.6 0 -7.9 -0.4 -7.9 -1z"/>
  <path d="M638.3 433.3 c-2.1 -0.4 -3.3 -2.2 -1.5 -2.4 0.4 0 1.8 -0.2 3.2 -0.5 1.4 -0.2 3.2 0.1 4 0.6 1.3 0.9 1.3 1.1 0 2 -1.6 1 -2 1 -5.7 0.3z"/>
  <path d="M766 432.5 c0.8 -0.9 3 -1.5 5.6 -1.5 3.2 0 4.4 0.4 4.4 1.5 0 1.2 -1.3 1.5 -5.6 1.5 -4.9 0 -5.5 -0.2 -4.4 -1.5z"/>
  <path d="M510.1 424.5 c1 -1 4.6 -1.7 10.9 -2.2 6.3 -0.4 10.6 -1.2 12.8 -2.5 3.3 -1.8 9.8 -2.5 8.8 -0.9 -0.3 0.5 -1.4 0.7 -2.5 0.4 -1.1 -0.3 -2.1 0.2 -2.4 1.1 -1 2.4 5.2 3.6 20.3 3.8 11.9 0.1 12.7 0.2 6.5 0.8 -3.8 0.4 -18 0.8 -31.5 0.9 -21.7 0.1 -24.3 -0.1 -22.9 -1.4z"/>
  <path d="M703.1 420.6 c-1 -1.2 -0.8 -1.7 0.7 -2.5 1.9 -1 6.2 -0.5 6.2 0.8 0 2.8 -5 4 -6.9 1.7z"/>
  <path d="M720 420.1 c0 -0.6 -1.6 -1.3 -3.5 -1.7 -2.9 -0.5 -3.3 -0.9 -2.4 -2 1.5 -1.9 5.5 -1.8 6.3 0.1 0.3 0.9 1.8 1.5 3.7 1.5 2 0 2.9 0.4 2.7 1.3 -0.5 1.5 -6.8 2.3 -6.8 0.8z"/>
  <path d="M416 418 c0 -1.7 0.7 -2 5 -2 4.3 0 5 0.3 5 2 0 1.7 -0.7 2 -5 2 -4.3 0 -5 -0.3 -5 -2z"/>
  <path d="M562.9 418.5 c-0.3 -0.2 -3.5 -0.5 -7.2 -0.6 -6.5 -0.2 -6.7 -0.3 -5.1 -2 2.5 -2.8 13.9 -2.7 15.4 0 0.5 1.1 1 2.2 1 2.5 0 0.7 -3.5 0.8 -4.1 0.1z"/>
  <path d="M687.7 416.9 c1.5 -1.4 8.6 -1.5 9 -0.1 0.4 1 -0.8 1.3 -4.6 1.1 -2.8 -0.2 -4.8 -0.6 -4.4 -1z"/>
  <path d="M498.9 412.6 l2.1 -2.3 -5.5 -2.3 c-5.8 -2.4 -6.7 -4.3 -2.3 -4.8 1.9 -0.2 2.7 0.2 3.1 1.9 0.6 2.1 1 2.2 7.6 1.5 3.9 -0.3 7.1 -0.3 7.1 0.1 0 0.5 1.1 0.8 2.5 0.8 3 0 3.3 -1.5 0.6 -2.2 -1.1 -0.3 -2.2 -1.1 -2.5 -1.9 -0.4 -1.1 0.7 -1.4 5.2 -1.4 5.2 -0.1 5.5 -0.2 3.8 -1.5 -1.1 -0.8 -3.5 -1.5 -5.3 -1.5 -2.3 0 -3.3 -0.5 -3.3 -1.5 0 -1.2 1.5 -1.5 7.5 -1.5 6 0 7.5 0.3 7.5 1.5 0 1.1 1.2 1.5 4.5 1.5 3.3 0 4.5 0.4 4.5 1.5 0 1.2 2 1.5 11.3 1.7 6.1 0.1 9 0.3 6.2 0.5 -5.4 0.4 -14.3 2.3 -24.1 5.3 -3.4 1 -9.9 2.4 -14.5 3.1 -4.6 0.6 -8.8 1.5 -9.4 1.9 -0.5 0.4 -2.7 1 -4.9 1.3 l-3.9 0.6 2.2 -2.3z m34.1 -9.2 c1.2 -1.3 0.7 -1.5 -4 -1.2 -3.1 0.2 -5.5 0.8 -5.8 1.6 -0.6 1.9 8.2 1.6 9.8 -0.4z"/>
  <path d="M571.6 389.5 c-0.7 -1.8 1.6 -3 4 -2.1 1.3 0.5 1.4 0.9 0.4 2.1 -1.6 1.9 -3.6 1.9 -4.4 0z"/>
  <path d="M582.7 390.1 c-6.3 -1.3 -5.5 -2.2 1.8 -1.9 4 0.2 6.9 0.7 6.8 1.3 -0.3 1.3 -3.8 1.5 -8.6 0.6z"/>
 </g>
</svg>